Coordinates
version=1
nRows=24
nColumns=22
inDegrees=yes

Units are S.I. units (second, meters, Newtons, ...)
If the header above contains a line with 'inDegrees', this indicates whether rotational values are in degrees (yes) or radians (no).

endheader
time	pelvis_tilt	pelvis_list	pelvis_rotation	pelvis_tx	pelvis_ty	pelvis_tz	hip_flexion_r	hip_adduction_r	hip_rotation_r	knee_angle_r	ankle_angle_r	subtalar_angle_r	hip_flexion_l	hip_adduction_l	hip_rotation_l	knee_angle_l	ankle_angle_l	subtalar_angle_l	lumbar_extension	lumbar_bending	lumbar_rotation
      0.01000000	      1.42825679	     -1.16800236	      3.87516834	     -0.65188127	      1.08496223	      1.14396471	     -3.57947116	      2.72041344	     -7.73460160	     -8.34274197	     11.77413202	     -3.47987067	     -3.19564934	     -1.81106505	     -0.09754075	    -10.70281420	     13.05141397	     -2.24366824	     -2.44426343	     -0.71048099	     -4.78344361
      0.02000000	      1.42518241	     -1.17020578	      3.86852979	     -0.65195866	      1.08496431	      1.14395026	     -3.57494971	      2.72069610	     -7.73499439	     -8.33068735	     11.77596003	     -3.47802065	     -3.18932903	     -1.81100481	     -0.10106012	    -10.70150960	     13.05228549	     -2.24427297	     -2.45416257	     -0.71134929	     -4.78692608
      0.03000000	      1.41337670	     -1.17693841	      3.84685744	     -0.65203894	      1.08494572	      1.14393949	     -3.57307676	      2.72483996	     -7.66315743	     -8.29633711	     11.83630822	     -3.32882586	     -3.15952068	     -1.81499243	     -0.15427518	    -10.72909106	     13.06584048	     -2.26015794	     -2.45101024	     -0.70335588	     -4.79495644
      0.04000000	      1.40005758	     -1.17439670	      3.82620154	     -0.65209567	      1.08493446	      1.14392494	     -3.55794829	      2.71493197	     -7.65462181	     -8.28675769	     11.90601171	     -3.11781556	     -3.15480438	     -1.80702894	     -0.16818399	    -10.70873920	     13.04933263	     -2.26743478	     -2.44351776	     -0.71043661	     -4.78083492
      0.05000000	      1.39733914	     -1.17680592	      3.81848312	     -0.65218465	      1.08493607	      1.14390618	     -3.55173309	      2.71468698	     -7.65712988	     -8.27689854	     11.90770345	     -3.11472410	     -3.15009635	     -1.80685827	     -0.16901829	    -10.70501507	     13.04999252	     -2.26767876	     -2.45432609	     -0.71173854	     -4.78286497
      0.06000000	      1.39132124	     -1.17848014	      3.80412719	     -0.65223940	      1.08492803	      1.14388144	     -3.55478787	      2.71340177	     -7.63711039	     -8.24914534	     11.93936663	     -3.04858085	     -3.14208759	     -1.80520500	     -0.19859347	    -10.70465233	     13.05169720	     -2.27258425	     -2.45323708	     -0.70872445	     -4.79810189
      0.07000000	      1.39386937	     -1.18264983	      3.78359769	     -0.65236906	      1.08493713	      1.14387813	     -3.53767937	      2.71207459	     -7.62064765	     -8.27009066	     11.93009720	     -2.99163995	     -3.13781651	     -1.80567839	     -0.20166075	    -10.70980200	     13.04979372	     -2.27589774	     -2.47621056	     -0.70489800	     -4.78755261
      0.08000000	      1.38725349	     -1.18580660	      3.77318663	     -0.65241941	      1.08493144	      1.14386999	     -3.53775804	      2.71379196	     -7.61768961	     -8.24816311	     11.93922122	     -2.95637648	     -3.13339242	     -1.80763578	     -0.22873756	    -10.69907606	     13.05041653	     -2.27922171	     -2.47406474	     -0.70491013	     -4.79429289
      0.09000000	      1.38926106	     -1.18832615	      3.75964326	     -0.65251755	      1.08493576	      1.14384979	     -3.52984201	      2.71240081	     -7.60885319	     -8.25552586	     11.93231164	     -2.94377340	     -3.12848126	     -1.80621638	     -0.22905096	    -10.70673456	     13.04906004	     -2.28036550	     -2.49008995	     -0.69954188	     -4.79799176
      0.10000000	      1.38778478	     -1.19029654	      3.75381442	     -0.65259858	      1.08493399	      1.14384105	     -3.52518725	      2.71289246	     -7.60925952	     -8.25135701	     11.93173377	     -2.94226438	     -3.12423167	     -1.80666711	     -0.23043014	    -10.70389871	     13.04930416	     -2.28062046	     -2.49944363	     -0.70067308	     -4.80039302
      0.11000000	      1.39041848	     -1.19296765	      3.74136787	     -0.65268300	      1.08493916	      1.14381842	     -3.51923608	      2.71181531	     -7.59989167	     -8.25812881	     11.92126634	     -2.93490724	     -3.11992081	     -1.80637322	     -0.24254072	    -10.71131852	     13.04899886	     -2.28251060	     -2.51296532	     -0.69260440	     -4.81638269
      0.12000000	      1.38923490	     -1.19507484	      3.73688797	     -0.65275714	      1.08493751	      1.14380619	     -3.51519219	      2.71254752	     -7.60002654	     -8.25448372	     11.92030334	     -2.93400660	     -3.11553927	     -1.80682356	     -0.24442955	    -10.70952597	     13.04928108	     -2.28285255	     -2.52213156	     -0.69338517	     -4.81913506
      0.13000000	      1.39375834	     -1.20015385	      3.73212287	     -0.65284881	      1.08494513	      1.14378392	     -3.51121333	      2.71563663	     -7.58904971	     -8.26124336	     11.90594784	     -2.92772631	     -3.10636569	     -1.81122803	     -0.26498456	    -10.72580121	     13.05060390	     -2.28655580	     -2.54011051	     -0.68497880	     -4.84414896
      0.14000000	      1.39288004	     -1.20170329	      3.72633538	     -0.65291329	      1.08494423	      1.14375889	     -3.50826564	      2.71467582	     -7.59007520	     -8.25707928	     11.90545686	     -2.92731304	     -3.10246245	     -1.80984336	     -0.26591653	    -10.72509601	     13.05105573	     -2.28685092	     -2.54727243	     -0.68192180	     -4.84785155
      0.15000000	      1.39640721	     -1.20406879	      3.72396795	     -0.65298312	      1.08494849	      1.14371665	     -3.50647118	      2.71397270	     -7.58266821	     -8.26055515	     11.89762317	     -2.92492606	     -3.09534925	     -1.80983449	     -0.27913580	    -10.73783032	     13.05312601	     -2.28939240	     -2.55895985	     -0.67183886	     -4.88151630
      0.16000000	      1.39550835	     -1.20536090	      3.72265563	     -0.65304432	      1.08494949	      1.14368811	     -3.50376381	      2.71337967	     -7.58285963	     -8.25674971	     11.89725748	     -2.92458890	     -3.09105209	     -1.80891756	     -0.28091556	    -10.73644173	     13.05377481	     -2.28975085	     -2.56636209	     -0.66981965	     -4.88659826
      0.17000000	      1.39899644	     -1.20573332	      3.72576943	     -0.65309547	      1.08495388	      1.14363761	     -3.50592781	      2.71137754	     -7.57469120	     -8.25644981	     11.89234212	     -2.92255680	     -3.08511213	     -1.80742580	     -0.29293805	    -10.74697787	     13.05620172	     -2.29216143	     -2.57360755	     -0.66077898	     -4.93289984
      0.18000000	      1.40033771	     -1.20724138	      3.73421728	     -0.65314799	      1.08495658	      1.14358944	     -3.51057947	      2.71231951	     -7.57496993	     -8.24540049	     11.88949665	     -2.92002491	     -3.07810788	     -1.80766399	     -0.29774136	    -10.75402430	     13.05912699	     -2.29485984	     -2.57977851	     -0.65402451	     -4.96830832
      0.19000000	      1.40020576	     -1.20744483	      3.73145759	     -0.65320065	      1.08495794	      1.14355229	     -3.50932764	      2.70998044	     -7.57595600	     -8.24137199	     11.88917553	     -2.91972937	     -3.07586207	     -1.80506564	     -0.29781647	    -10.75248826	     13.05955101	     -2.29513360	     -2.58330032	     -0.64844041	     -4.97426841
      0.20000000	      1.40029209	     -1.20779519	      3.73615896	     -0.65323743	      1.08495776	      1.14350883	     -3.51420941	      2.70907195	     -7.57421424	     -8.22993470	     11.88501495	     -2.91735029	     -3.07478205	     -1.80389608	     -0.30333743	    -10.74876144	     13.06055130	     -2.29772260	     -2.58218212	     -0.64096415	     -5.01704808
      0.21000000	      1.40063458	     -1.20757926	      3.72951938	     -0.65328675	      1.08495734	      1.14347588	     -3.51430628	      2.70604331	     -7.57630570	     -8.22438352	     11.88459496	     -2.91706529	     -3.07396971	     -1.80043980	     -0.30255999	    -10.74865781	     13.06044647	     -2.29808415	     -2.58220733	     -0.63334788	     -5.02359055
      0.22000000	      1.39825483	     -1.20839336	      3.73094048	     -0.65331188	      1.08495155	      1.14344210	     -3.52033097	      2.70599995	     -7.57705905	     -8.20573289	     11.87931970	     -2.91493430	     -3.07466611	     -1.80012863	     -0.30851095	    -10.73928709	     13.06009451	     -2.30152420	     -2.57342252	     -0.62555958	     -5.05791940
      0.23000000	      1.39872712	     -1.20823380	      3.72292025	     -0.65336437	      1.08494635	      1.14341561	     -3.52069141	      2.70288731	     -7.57933493	     -8.20007753	     11.87869230	     -2.91474077	     -3.07400256	     -1.79715681	     -0.30699225	    -10.73985861	     13.05978494	     -2.30200290	     -2.57242793	     -0.61806489	     -5.06242584
      0.24000000	      1.39878914	     -1.20799298	      3.71359698	     -0.65340834	      1.08493963	      1.14338968	     -3.52230200	      2.69969480	     -7.58183722	     -8.19201481	     11.87769277	     -2.91448367	     -3.07427036	     -1.79390301	     -0.30692917	    -10.73923164	     13.05966870	     -2.30284063	     -2.56799743	     -0.60951507	     -5.07017749
